<svg xmlns="http://www.w3.org/2000/svg" viewBox="0 0 128 128" xmlns:m="https://www.mapbox.com"><defs><style>.cls-1{fill:#fff}</style></defs><g id="Sensordoelen"><circle cx="52.13" cy="57" r="36" style="fill:#99c666"/></g><g id="Sensortype"><path d="M84.72,29.26c1.32-.23,1.73.87,1.74,1.99v73.73c-.08.98-.2,1.88-1.34,2.02l-37.56-18.42v-40.93s37.16-18.39,37.16-18.39ZM83.82,32.81l-33.71,16.31-.06,37.67,33.76,16.62V32.81Z"/><path d="M97.79,91.12c-2.57-2.51,1.04-4.3,2.44-5.66,9.03-8.75,8.51-26.37-.36-35.07-1.37-1.35-4.32-2.62-2.26-5.13s5.71,1.24,7.17,2.85c8.8,9.77,9.34,26.49,2.09,37.27-1.37,2.04-6.38,8.35-9.07,5.73Z"/><path d="M35.41,47.46c.63-.18,7.78-.19,8.56-.05.59.11.86.59,1.03,1.12l-.13,39.49-.7.73c-2.51-.23-6.2.48-8.56.04-.51-.09-.98-.56-1.08-1.08l-.02-39.02c-.02-.5.44-1.12.9-1.25ZM42.42,50.04h-5.27v36.14h5.27v-36.14Z"/><path d="M91.67,52.24c2.19-.32,5.19,3.43,6.23,5.15,3.8,6.26,3.83,14.81.17,21.14-1.23,2.12-5.76,7.96-8.13,4.29-1.53-2.37,1.01-3.5,2.27-4.89,4.56-5.04,4.56-14.6,0-19.64-1.2-1.33-2.8-1.71-2.65-3.82.08-1.05,1.08-2.08,2.11-2.23Z"/><polygon class="cls-1" points="83.82 32.81 83.82 103.41 50.06 86.79 50.12 49.12 83.82 32.81"/><rect class="cls-1" x="37.16" y="50.04" width="5.27" height="36.14"/></g><m:metadata><m:parameters><m:parameter m:name="color-1" m:type="color" m:value="#000000"/><m:parameter m:name="color-2" m:type="color" m:value="#99C666"/><m:parameter m:name="color-3" m:type="color" m:value="#FFFFFF"/></m:parameters></m:metadata></svg>