<svg xmlns="http://www.w3.org/2000/svg" viewBox="0 0 128 128" xmlns:m="https://www.mapbox.com"><defs/><g id="Sensordoelen"><circle cx="56.79" cy="66.72" r="36" style="fill:#a38fbf"/></g><g id="Sensortype"><g><path d="M100.5,87.83l7.26-7.32-3.77-4.97c1.36-2.25,2.32-4.67,2.92-7.15l6.19-.9-.04-10.31-6.2-.85c-.61-2.48-1.59-4.89-2.97-7.13l3.73-5-7.32-7.26-4.97,3.77c-2.25-1.36-4.67-2.32-7.15-2.92l-.9-6.19-10.31.04-.85,6.2c-2.48.61-4.89,1.59-7.13,2.97l-5-3.73-7.26,7.32,3.77,4.97c-1.36,2.25-2.32,4.67-2.92,7.15l-6.19.9.04,10.31,6.2.85c.61,2.48,1.59,4.89,2.97,7.13l-3.73,5,7.32,7.26,4.97-3.77c2.25,1.36,4.67,2.32,7.15,2.92l.9,6.19,10.31-.04.85-6.2c2.48-.61,4.89-1.59,7.13-2.97l5,3.73ZM74.95,69.8c-4.06-4.03-4.09-10.59-.05-14.66,4.03-4.06,10.59-4.09,14.66-.05,4.06,4.03,4.09,10.59.05,14.66-4.03,4.06-10.59,4.09-14.66.05Z"/><g><path d="M74.95,69.8c-4.06-4.03-4.09-10.59-.05-14.66,4.03-4.06,10.59-4.09,14.66-.05,4.06,4.03,4.09,10.59.05,14.66-4.03,4.06-10.59,4.09-14.66.05Z" style="fill:none;stroke-miterlimit:10;stroke:#000;stroke-width:1.38px"/><path d="M82.25,48.55c-3.73,0-7.23,1.46-9.86,4.11-5.4,5.44-5.37,14.25.07,19.65,2.62,2.6,6.1,4.03,9.79,4.03s7.23-1.46,9.86-4.11c2.61-2.63,4.05-6.13,4.03-9.84-.01-3.71-1.47-7.2-4.11-9.81-2.62-2.6-6.1-4.03-9.79-4.03Z" style="stroke:#fff;stroke-width:1.18px;fill:none;stroke-miterlimit:10"/></g></g></g><m:metadata><m:parameters><m:parameter m:name="color-1" m:type="color" m:value="#000000"/><m:parameter m:name="color-2" m:type="color" m:value="#A38FBF"/><m:parameter m:name="color-3" m:type="color" m:value="#FFFFFF"/></m:parameters></m:metadata></svg>