<svg xmlns="http://www.w3.org/2000/svg" viewBox="0 0 128 128" xmlns:m="https://www.mapbox.com"><defs/><g id="Sensordoelen"><circle cx="76.99" cy="61.76" r="36" style="fill:#a38fbf"/></g><g id="Sensortype"><g><path d="M86.82,77.08c-.89-10.89-6.11-16.31-13.68-30.67-2.33-4.42-5.69-11.2-9.11-19.97,0,.03-.02.06-.03.1,0-.03-.02-.06-.03-.1-3.42,8.76-6.78,15.55-9.11,19.97-7.57,14.36-12.79,19.78-13.68,30.67-.34,4.12-.71,9.19,2.27,14.07,3.62,5.94,11.31,10.09,18.85,10.38.32.01.64.02.95.02.25,0,.5-.01.75-.02.25,0,.5.02.75.02.31,0,.63,0,.95-.02,7.54-.29,15.23-4.44,18.85-10.38,2.98-4.88,2.61-9.95,2.27-14.07Z" style="fill:#fff;stroke:#000;stroke-linecap:round;stroke-linejoin:round;stroke-width:2.55px"/><path d="M77.91,88.54c-2.84,3.61-7.11,4.47-8.81,4.67-.04,0-.07,0-.11,0-.42,0-.8-.28-.9-.7-.12-.45.12-.92.56-1.09,1.6-.64,3.79-1.91,5.2-4.32,1.31-2.25,1.31-4.51,1.31-6.7,0-3.89-.92-6.8-1.46-8.54-1.71-5.44-3.38-10.55-5.1-15.63-.16-.47.07-.97.53-1.16.46-.19.98.01,1.19.46,1.28,2.65,2.62,5.36,3.97,8.05.64,1.27,1.22,2.4,1.73,3.42,3.01,5.91,4.02,7.9,4.29,11.22.19,2.31.54,6.6-2.39,10.33Z" style="stroke:#000;stroke-linecap:round;stroke-linejoin:round;stroke-width:2.55px"/></g></g><m:metadata><m:parameters><m:parameter m:name="color-1" m:type="color" m:value="#000000"/><m:parameter m:name="color-2" m:type="color" m:value="#A38FBF"/><m:parameter m:name="color-3" m:type="color" m:value="#FFFFFF"/></m:parameters></m:metadata></svg>